<svg xmlns="http://www.w3.org/2000/svg" xmlns:xlink="http://www.w3.org/1999/xlink" width="45" height="45" viewBox="0 0 45 45"><defs><style>.a{fill:url(#a);}.b{fill:#fff;}</style><linearGradient id="a" x1="0.057" y1="-0.019" x2="0.5" y2="1" gradientUnits="objectBoundingBox"><stop offset="0" stop-color="#039be5"/><stop offset="1" stop-color="#27f"/></linearGradient></defs><path class="a" d="M27.5,5A22.5,22.5,0,1,0,50,27.5,22.5,22.5,0,0,0,27.5,5Z" transform="translate(-5 -5)"/><path class="b" d="M30.334,33.012H37.08l1.059-6.218H30.333V23.4c0-2.583.93-4.874,3.593-4.874h4.279V13.095a40,40,0,0,0-5.347-.294c-6.274,0-9.952,3.006-9.952,9.856v4.137h-6.45v6.218h6.45V50.1a28.725,28.725,0,0,0,3.9.293,28.869,28.869,0,0,0,3.529-.242Z" transform="translate(-4.429 -5.395)"/></svg>