<svg xmlns="http://www.w3.org/2000/svg" xmlns:xlink="http://www.w3.org/1999/xlink" width="35" height="35" viewBox="0 0 35 35"><defs><style>.a{fill:url(#a);}.b{fill:#fff;}</style><linearGradient id="a" x1="0.057" y1="-0.019" x2="0.5" y2="1" gradientUnits="objectBoundingBox"><stop offset="0" stop-color="#039be5"/><stop offset="1" stop-color="#27f"/></linearGradient></defs><path class="a" d="M22.5,5A17.5,17.5,0,1,0,40,22.5,17.5,17.5,0,0,0,22.5,5Z" transform="translate(-5 -5)"/><path class="b" d="M27.306,28.6H32.58l.828-4.861h-6.1V21.083c0-2.02.727-3.81,2.809-3.81H33.46V13.031a31.272,31.272,0,0,0-4.18-.23c-4.905,0-7.781,2.35-7.781,7.705v3.234H16.457V28.6H21.5V41.964a22.458,22.458,0,0,0,3.048.229A22.569,22.569,0,0,0,27.306,42Z" transform="translate(-7.147 -7.193)"/></svg>