<svg xmlns="http://www.w3.org/2000/svg" xmlns:xlink="http://www.w3.org/1999/xlink" width="21" height="21" viewBox="0 0 21 21"><defs><style>.a{fill:url(#a);}.b{fill:#fff;}</style><linearGradient id="a" x1="0.057" y1="-0.019" x2="0.5" y2="1" gradientUnits="objectBoundingBox"><stop offset="0" stop-color="#039be5"/><stop offset="1" stop-color="#27f"/></linearGradient></defs><g transform="translate(-5 -5)"><path class="a" d="M15.5,5A10.5,10.5,0,1,0,26,15.5,10.5,10.5,0,0,0,15.5,5Z"/><path class="b" d="M22.162,21.958h2.773l.435-2.817H22.161V17.6c0-1.17.382-2.208,1.477-2.208H25.4V12.934a14.943,14.943,0,0,0-2.2-.133c-2.579,0-4.091,1.362-4.091,4.465v1.874H16.457v2.817h2.651V29.7a9.717,9.717,0,0,0,3.054.023Z" transform="translate(-5.219 -3.834)"/></g></svg>