<svg xmlns="http://www.w3.org/2000/svg" width="37.835" height="37.835" viewBox="0 0 37.835 37.835"><defs><style>.a{fill:#ffc107;}.b{fill:#ff3d00;}.c{fill:#4caf50;}.d{fill:#1976d2;}</style></defs><path class="a" d="M41.467,19.213H39.943v-.079H22.918V26.7H33.609a11.359,11.359,0,1,1-3.161-12.259L35.8,9.091a18.9,18.9,0,1,0,6.037,13.827A19.047,19.047,0,0,0,41.467,19.213Z" transform="translate(-4 -4)"/><path class="b" d="M6.306,14.112l6.215,4.558a11.328,11.328,0,0,1,18.051-4.229l5.351-5.351A18.88,18.88,0,0,0,6.306,14.112Z" transform="translate(-4.125 -4)"/><path class="c" d="M23.036,43.137A18.829,18.829,0,0,0,35.72,38.226l-5.855-4.954a11.321,11.321,0,0,1-17.5-5.217L6.2,32.807A18.9,18.9,0,0,0,23.036,43.137Z" transform="translate(-4.119 -5.302)"/><path class="d" d="M42.55,20.079H41.026V20H24v7.567H34.691a11.388,11.388,0,0,1-3.866,5.269l0,0,5.855,4.954a18.3,18.3,0,0,0,6.234-14.006A19.046,19.046,0,0,0,42.55,20.079Z" transform="translate(-5.082 -4.866)"/></svg>