<svg xmlns="http://www.w3.org/2000/svg" width="35" height="35" viewBox="0 0 35 35"><defs><style>.a{fill:#304ffe;}.b{fill:rgba(48,79,254,0.29);}.c{fill:#6200ea;}.d{fill:#673ab7;}.e{fill:#8e24aa;}.f{fill:#c2185b;}.g{fill:#d81b60;}.h{fill:#f50057;}.i{fill:#ff1744;}.j{fill:#ff5722;}.k{fill:#ff6f00;}.l{fill:#ff9800;}.m{fill:#ffc107;}.n{fill:#ffd54f;}.o{fill:#ffe082;}.p{fill:#ffecb3;}.q{fill:#fff;}</style></defs><path class="a" d="M31.278,41H15.722A9.751,9.751,0,0,1,6,31.278V15.722A9.751,9.751,0,0,1,15.722,6H31.278A9.751,9.751,0,0,1,41,15.722V31.278A9.751,9.751,0,0,1,31.278,41Z" transform="translate(-6 -6)"/><path class="b" d="M6,15.722V31.278A9.751,9.751,0,0,0,15.722,41H31.278A9.751,9.751,0,0,0,41,31.278V15.722A8.388,8.388,0,0,0,40.611,13,31.921,31.921,0,0,0,20.583,6a31.163,31.163,0,0,0-10.4,1.75A9.675,9.675,0,0,0,6,15.722Z" transform="translate(-6 -6)"/><path class="c" d="M20.583,8A31.147,31.147,0,0,0,7.167,11.084,9.621,9.621,0,0,0,6,15.711V31.133a9.709,9.709,0,0,0,9.722,9.639H31.278A9.709,9.709,0,0,0,41,31.133V15.9A30.086,30.086,0,0,0,20.583,8Z" transform="translate(-6 -5.771)"/><path class="d" d="M41,18.59A28.5,28.5,0,0,0,20.583,10,28.2,28.2,0,0,0,6.194,13.913,10.386,10.386,0,0,0,6,15.727V31a9.663,9.663,0,0,0,9.722,9.545H31.278A9.663,9.663,0,0,0,41,31Z" transform="translate(-6 -5.543)"/><path class="e" d="M41,21.438A26.431,26.431,0,0,0,20.583,12,26.412,26.412,0,0,0,6,16.341V30.876a9.611,9.611,0,0,0,9.722,9.438H31.278A9.611,9.611,0,0,0,41,30.876Z" transform="translate(-6 -5.314)"/><path class="f" d="M41,30.769V24.621A24.787,24.787,0,0,0,20.583,14,25.265,25.265,0,0,0,6,18.658V30.769a9.554,9.554,0,0,0,9.722,9.316H31.278A9.554,9.554,0,0,0,41,30.769Z" transform="translate(-6 -5.086)"/><path class="g" d="M41,30.681v-2.2A22.445,22.445,0,0,0,20.583,16,22.93,22.93,0,0,0,6,21.138v9.543c0,5.047,4.375,9.176,9.722,9.176H31.278C36.625,39.857,41,35.728,41,30.681Z" transform="translate(-6 -4.857)"/><path class="h" d="M40.554,36.72C38.71,26.023,30.46,18,20.559,18A19.044,19.044,0,0,0,6,25.02V33.6c0,6.129,4.368,11.143,9.706,11.143h15.53C35.6,44.743,39.39,41.4,40.554,36.72Z" transform="translate(-6 -9.744)"/><path class="i" d="M38.66,40.058C38.178,28.915,30.278,20,20.451,20,14.574,20,9.372,23.232,6,28.246v5.126c0,6.129,4.335,11.143,9.634,11.143H31.049A9.233,9.233,0,0,0,38.66,40.058Z" transform="translate(-6 -9.515)"/><path class="j" d="M20.317,22C14.113,22,8.768,26.012,6,32.029v1.114c0,6.129,4.3,11.143,9.545,11.143H30.816a8.141,8.141,0,0,0,5.631-2.229c0-.334.1-.78.1-1.114C36.543,30.469,29.289,22,20.317,22Z" transform="translate(-6 -9.286)"/><path class="k" d="M21.163,24C14.084,24,8.219,29.237,6.5,36.48a10.189,10.189,0,0,0,9.607,7.577h16.18a8.924,8.924,0,0,0,3.843-.891,20.032,20.032,0,0,0,.2-2.451C36.332,31.466,29.557,24,21.163,24Z" transform="translate(-5.943 -9.058)"/><path class="l" d="M21.977,26A14.021,14.021,0,0,0,8.1,39.372a10.58,10.58,0,0,0,8.5,4.457H33.809a10.249,10.249,0,0,0,1.829-.223,14.582,14.582,0,0,0,.323-3.12A14.213,14.213,0,0,0,21.977,26Z" transform="translate(-5.76 -8.829)"/><path class="m" d="M34.069,43.6a11.5,11.5,0,0,0,.446-3.343,12.257,12.257,0,0,0-24.515,0,3.791,3.791,0,0,0,.111,1.114A11.384,11.384,0,0,0,16.686,43.6Z" transform="translate(-5.543 -8.6)"/><path class="n" d="M22.029,30A9.987,9.987,0,0,0,12,40.029a9.5,9.5,0,0,0,.334,2.563,10.073,10.073,0,0,0,4.123.78H31.5a10.5,10.5,0,0,0,.557-3.343A9.987,9.987,0,0,0,22.029,30Z" transform="translate(-6.686 -8.372)"/><path class="o" d="M21.8,32.1A7.752,7.752,0,0,0,14,39.9a7.477,7.477,0,0,0,.669,3.12,7.357,7.357,0,0,0,1.56.111h12.7A7.993,7.993,0,0,0,29.6,39.9,7.752,7.752,0,0,0,21.8,32.1Z" transform="translate(-6.946 -8.132)"/><path class="p" d="M21.572,34.1A5.517,5.517,0,0,0,16,39.672,5.392,5.392,0,0,0,17.114,42.9h8.915a5.392,5.392,0,0,0,1.114-3.232A5.517,5.517,0,0,0,21.572,34.1Z" transform="translate(-6.824 -7.903)"/><path class="q" d="M28.632,36.085H17.453A7.475,7.475,0,0,1,10,28.632V17.453A7.475,7.475,0,0,1,17.453,10H28.632a7.475,7.475,0,0,1,7.453,7.453V28.632A7.475,7.475,0,0,1,28.632,36.085ZM17.453,11.863a5.606,5.606,0,0,0-5.59,5.59V28.632a5.606,5.606,0,0,0,5.59,5.59H28.632a5.606,5.606,0,0,0,5.59-5.59V17.453a5.606,5.606,0,0,0-5.59-5.59Z" transform="translate(-5.543 -5.543)"/><path class="q" d="M24.8,32.829a7.8,7.8,0,1,1,7.8-7.8A7.752,7.752,0,0,1,24.8,32.829Zm0-13.372a5.572,5.572,0,1,0,5.572,5.572A5.517,5.517,0,0,0,24.8,19.457Zm8.915-3.343A1.114,1.114,0,1,1,32.6,15,1.053,1.053,0,0,1,33.715,16.114Z" transform="translate(-7.422 -7.273)"/></svg>