<svg xmlns="http://www.w3.org/2000/svg" width="45" height="45" viewBox="0 0 45 45"><defs><style>.a{fill:#304ffe;}.b{fill:rgba(48,79,254,0.29);}.c{fill:#6200ea;}.d{fill:#673ab7;}.e{fill:#8e24aa;}.f{fill:#c2185b;}.g{fill:#d81b60;}.h{fill:#f50057;}.i{fill:#ff1744;}.j{fill:#ff5722;}.k{fill:#ff6f00;}.l{fill:#ff9800;}.m{fill:#ffc107;}.n{fill:#ffd54f;}.o{fill:#ffe082;}.p{fill:#ffecb3;}.q{fill:#fff;}</style></defs><path class="a" d="M38.5,51h-20A12.537,12.537,0,0,1,6,38.5v-20A12.537,12.537,0,0,1,18.5,6h20A12.537,12.537,0,0,1,51,18.5v20A12.537,12.537,0,0,1,38.5,51Z" transform="translate(-6 -6)"/><path class="b" d="M6,18.5v20A12.537,12.537,0,0,0,18.5,51h20A12.537,12.537,0,0,0,51,38.5v-20a10.784,10.784,0,0,0-.5-3.5A41.042,41.042,0,0,0,24.75,6,40.067,40.067,0,0,0,11.375,8.25,12.439,12.439,0,0,0,6,18.5Z" transform="translate(-6 -6)"/><path class="c" d="M24.75,8A39.555,39.555,0,0,0,7.5,12.026,12.707,12.707,0,0,0,6,18.064V38.192a12.577,12.577,0,0,0,12.5,12.58h20A12.577,12.577,0,0,0,51,38.192V18.315A38.365,38.365,0,0,0,24.75,8Z" transform="translate(-6 -5.771)"/><path class="d" d="M51,21.4A36.093,36.093,0,0,0,24.75,10a35.391,35.391,0,0,0-18.5,5.195A14.216,14.216,0,0,0,6,17.6V37.873a12.623,12.623,0,0,0,12.5,12.67h20A12.623,12.623,0,0,0,51,37.873Z" transform="translate(-6 -5.543)"/><path class="e" d="M51,24.771A33.328,33.328,0,0,0,24.75,12,32.757,32.757,0,0,0,6,17.875V37.543A12.675,12.675,0,0,0,18.5,50.314h20A12.675,12.675,0,0,0,51,37.543Z" transform="translate(-6 -5.314)"/><path class="f" d="M51,37.2V28.692A31.287,31.287,0,0,0,24.75,14,30.952,30.952,0,0,0,6,20.444V37.2A12.736,12.736,0,0,0,18.5,50.085h20A12.736,12.736,0,0,0,51,37.2Z" transform="translate(-6 -5.086)"/><path class="g" d="M51,36.835V33.71A28.716,28.716,0,0,0,24.75,16,27.823,27.823,0,0,0,6,23.292V36.835C6,44,11.625,49.857,18.5,49.857h20C45.375,49.857,51,44,51,36.835Z" transform="translate(-6 -4.857)"/><path class="h" d="M50.554,36.72C48.176,26.023,37.538,18,24.773,18A27.733,27.733,0,0,0,6,25.02V33.6c0,6.129,5.632,11.143,12.515,11.143H38.54C44.171,44.743,49.052,41.4,50.554,36.72Z" transform="translate(-6 0.256)"/><path class="i" d="M48.66,40.058C48.031,28.915,37.712,20,24.876,20A25.031,25.031,0,0,0,6,28.246v5.126C6,39.5,11.663,44.515,18.584,44.515H38.719A13.1,13.1,0,0,0,48.66,40.058Z" transform="translate(-6 0.485)"/><path class="j" d="M25,22c-8.235,0-15.33,4.012-19,10.029v1.114c0,6.129,5.7,11.143,12.67,11.143H38.941a12.923,12.923,0,0,0,7.475-2.229c0-.334.127-.78.127-1.114C46.543,30.469,36.914,22,25,22Z" transform="translate(-6 0.714)"/><path class="k" d="M26.079,24C16.627,24,8.8,29.237,6.5,36.48c1.755,4.457,6.886,7.577,12.827,7.577h21.6a15.293,15.293,0,0,0,5.131-.891,15.133,15.133,0,0,0,.27-2.451C46.332,31.466,37.286,24,26.079,24Z" transform="translate(-5.943 0.942)"/><path class="l" d="M26.957,26C16.871,26,8.685,31.906,8.1,39.372a16.362,16.362,0,0,0,11.548,4.457H43.037a18.72,18.72,0,0,0,2.485-.223,10.9,10.9,0,0,0,.439-3.12C45.961,32.463,37.482,26,26.957,26Z" transform="translate(-5.76 1.171)"/><path class="m" d="M34.069,43.6a11.5,11.5,0,0,0,.446-3.343,12.257,12.257,0,0,0-24.515,0,3.791,3.791,0,0,0,.111,1.114A11.384,11.384,0,0,0,16.686,43.6Z" transform="translate(-5.543 1.4)"/><path class="n" d="M22.029,30A9.987,9.987,0,0,0,12,40.029a9.5,9.5,0,0,0,.334,2.563,10.073,10.073,0,0,0,4.123.78H31.5a10.5,10.5,0,0,0,.557-3.343A9.987,9.987,0,0,0,22.029,30Z" transform="translate(-3.129 1.628)"/><path class="o" d="M21.8,32.1A7.752,7.752,0,0,0,14,39.9a7.477,7.477,0,0,0,.669,3.12,7.357,7.357,0,0,0,1.56.111h12.7A7.993,7.993,0,0,0,29.6,39.9,7.752,7.752,0,0,0,21.8,32.1Z" transform="translate(-3.309 1.868)"/><path class="p" d="M21.572,34.1A5.517,5.517,0,0,0,16,39.672,5.392,5.392,0,0,0,17.114,42.9h8.915a5.392,5.392,0,0,0,1.114-3.232A5.517,5.517,0,0,0,21.572,34.1Z" transform="translate(-2.978 2.097)"/><path class="q" d="M35.775,46.085H20.31A10.34,10.34,0,0,1,10,35.775V20.31A10.34,10.34,0,0,1,20.31,10H35.775a10.34,10.34,0,0,1,10.31,10.31V35.775A10.34,10.34,0,0,1,35.775,46.085ZM20.31,12.578a7.755,7.755,0,0,0-7.733,7.733V35.775a7.755,7.755,0,0,0,7.733,7.733H35.775a7.755,7.755,0,0,0,7.733-7.733V20.31a7.755,7.755,0,0,0-7.733-7.733Z" transform="translate(-5.543 -5.543)"/><path class="q" d="M24.8,32.829a7.8,7.8,0,1,1,7.8-7.8A7.752,7.752,0,0,1,24.8,32.829Zm0-13.372a5.572,5.572,0,1,0,5.572,5.572A5.517,5.517,0,0,0,24.8,19.457Zm8.915-3.343A1.114,1.114,0,1,1,32.6,15,1.053,1.053,0,0,1,33.715,16.114Z" transform="translate(-2.184 -2.773)"/></svg>