<svg xmlns="http://www.w3.org/2000/svg" width="20" height="20" viewBox="0 0 20 20"><defs><style>.a{fill:#304ffe;}.b{fill:rgba(48,79,254,0.29);}.c{fill:#6200ea;}.d{fill:#673ab7;}.e{fill:#8e24aa;}.f{fill:#c2185b;}.g{fill:#d81b60;}.h{fill:#f50057;}.i{fill:#ff1744;}.j{fill:#ff5722;}.k{fill:#ff6f00;}.l{fill:#ff9800;}.m{fill:#ffc107;}.n{fill:#ffd54f;}.o{fill:#ffe082;}.p{fill:#ffecb3;}.q{fill:#fff;}</style></defs><g transform="translate(-6 -6)"><path class="a" d="M20.444,26H11.556A5.572,5.572,0,0,1,6,20.444V11.556A5.572,5.572,0,0,1,11.556,6h8.889A5.572,5.572,0,0,1,26,11.556v8.889A5.572,5.572,0,0,1,20.444,26Z" transform="translate(0 0)"/><path class="b" d="M6,11.556v8.889A5.572,5.572,0,0,0,11.556,26h8.889A5.572,5.572,0,0,0,26,20.444V11.556A4.793,4.793,0,0,0,25.778,10,18.241,18.241,0,0,0,14.333,6,17.808,17.808,0,0,0,8.389,7,5.529,5.529,0,0,0,6,11.556Z" transform="translate(0 0)"/><path class="c" d="M14.333,8A17.674,17.674,0,0,0,6.667,9.778,5.582,5.582,0,0,0,6,12.444v8.888a5.572,5.572,0,0,0,5.556,5.555h8.889A5.572,5.572,0,0,0,26,21.332V12.555A17.111,17.111,0,0,0,14.333,8Z" transform="translate(0 -0.887)"/><path class="d" d="M26,15a16.145,16.145,0,0,0-11.667-5,15.892,15.892,0,0,0-8.222,2.277A6.15,6.15,0,0,0,6,13.333v8.887a5.571,5.571,0,0,0,5.556,5.554h8.889A5.571,5.571,0,0,0,26,22.219Z" transform="translate(0 -1.774)"/><path class="e" d="M26,17.553A14.932,14.932,0,0,0,14.333,12,14.782,14.782,0,0,0,6,14.555v8.552a5.571,5.571,0,0,0,5.556,5.553h8.889A5.571,5.571,0,0,0,26,23.107Z" transform="translate(0 -2.66)"/><path class="f" d="M26,23.995V20.33A13.908,13.908,0,0,0,6,16.776v7.218a5.57,5.57,0,0,0,5.556,5.553h8.889A5.57,5.57,0,0,0,26,23.995Z" transform="translate(0 -3.547)"/><path class="g" d="M26,24.882V23.55A12.765,12.765,0,0,0,6,19.109v5.774a5.57,5.57,0,0,0,5.556,5.552h8.889A5.57,5.57,0,0,0,26,24.882Z" transform="translate(0 -4.434)"/><path class="h" d="M25.777,27.351A11.67,11.67,0,0,0,6,21.507v4.286a5.577,5.577,0,0,0,5.555,5.566h8.889A5.551,5.551,0,0,0,25.777,27.351Z" transform="translate(0 -5.359)"/><path class="i" d="M24.831,30.019A10.5,10.5,0,0,0,6,24.119v2.56a5.577,5.577,0,0,0,5.555,5.566h8.888A5.519,5.519,0,0,0,24.831,30.019Z" transform="translate(0 -6.245)"/><path class="j" d="M14.331,22A9.41,9.41,0,0,0,6,27.009v.557a5.577,5.577,0,0,0,5.554,5.566h8.887a5.186,5.186,0,0,0,3.277-1.113c0-.167.056-.39.056-.557A9.444,9.444,0,0,0,14.331,22Z" transform="translate(0 -7.132)"/><path class="k" d="M14.571,24A8.3,8.3,0,0,0,6.5,30.234a5.535,5.535,0,0,0,5.288,3.785h8.906a5.328,5.328,0,0,0,2.115-.445,9.1,9.1,0,0,0,.111-1.225A8.338,8.338,0,0,0,14.571,24Z" transform="translate(-0.222 -8.019)"/><path class="l" d="M15.28,26A7.145,7.145,0,0,0,8.1,32.679a5.534,5.534,0,0,0,4.4,2.226H21.4a5.484,5.484,0,0,0,.946-.111,7.041,7.041,0,0,0,.167-1.559A7.221,7.221,0,0,0,15.28,26Z" transform="translate(-0.931 -8.906)"/><path class="m" d="M22.023,35.793a5.746,5.746,0,0,0,.223-1.67,6.123,6.123,0,0,0-12.245,0,1.894,1.894,0,0,0,.056.557,5.687,5.687,0,0,0,3.284,1.113Z" transform="translate(-1.774 -9.793)"/><path class="n" d="M17.009,30A4.989,4.989,0,0,0,12,35.009a4.744,4.744,0,0,0,.167,1.28,5.031,5.031,0,0,0,2.059.39h7.514a5.247,5.247,0,0,0,.278-1.67A4.989,4.989,0,0,0,17.009,30Z" transform="translate(-2.673 -10.679)"/><path class="o" d="M17.9,32.1A3.872,3.872,0,0,0,14,36a3.735,3.735,0,0,0,.334,1.559,3.675,3.675,0,0,0,.779.056h6.345A3.993,3.993,0,0,0,21.793,36,3.872,3.872,0,0,0,17.9,32.1Z" transform="translate(-3.561 -11.61)"/><path class="p" d="M18.783,34.1A2.756,2.756,0,0,0,16,36.883a2.694,2.694,0,0,0,.557,1.614h4.453a2.694,2.694,0,0,0,.557-1.614A2.756,2.756,0,0,0,18.783,34.1Z" transform="translate(-4.448 -12.497)"/><path class="q" d="M21.105,25.547H14.442A4.455,4.455,0,0,1,10,21.105V14.442A4.455,4.455,0,0,1,14.442,10h6.663a4.455,4.455,0,0,1,4.442,4.442v6.663A4.455,4.455,0,0,1,21.105,25.547ZM14.442,11.111a3.341,3.341,0,0,0-3.332,3.332v6.663a3.341,3.341,0,0,0,3.332,3.332h6.663a3.341,3.341,0,0,0,3.332-3.332V14.442a3.341,3.341,0,0,0-3.332-3.332Z" transform="translate(-1.774 -1.774)"/><path class="q" d="M20.9,23.906a3.9,3.9,0,1,1,3.9-3.9A3.872,3.872,0,0,1,20.9,23.906Zm0-6.679a2.783,2.783,0,1,0,2.783,2.783A2.756,2.756,0,0,0,20.9,17.226Zm4.453-1.67A.557.557,0,1,1,24.793,15,.526.526,0,0,1,25.349,15.557Z" transform="translate(-4.897 -4.008)"/></g></svg>