<svg xmlns="http://www.w3.org/2000/svg" width="35" height="35" viewBox="0 0 35 35"><defs><style>.a{fill:#00c300;}.b{fill:#fff;}</style></defs><path class="a" d="M12.319,41H34.681A6.319,6.319,0,0,0,41,34.681V12.319A6.319,6.319,0,0,0,34.681,6H12.319A6.319,6.319,0,0,0,6,12.319V34.681A6.319,6.319,0,0,0,12.319,41Z" transform="translate(-6 -6)"/><path class="b" d="M35.767,21.825c0-5.539-5.578-10.045-12.434-10.045S10.9,16.287,10.9,21.825c0,4.966,4.424,9.125,10.4,9.911.405.087.956.266,1.1.61a2.534,2.534,0,0,1,.04,1.119s-.145.874-.177,1.06c-.054.313-.249,1.224,1.077.668S30.493,31,33.1,28.005h0A8.911,8.911,0,0,0,35.767,21.825Zm-17.3,3.3H16a.651.651,0,0,1-.652-.65V19.552a.652.652,0,0,1,1.3,0v4.27h1.819a.65.65,0,1,1,0,1.3Zm2.555-.65a.652.652,0,0,1-1.3,0V19.552a.652.652,0,0,1,1.3,0Zm5.948,0a.654.654,0,0,1-.653.65.655.655,0,0,1-.521-.26l-2.532-3.433v3.043a.653.653,0,0,1-1.305,0V19.552a.651.651,0,0,1,.653-.649.657.657,0,0,1,.521.26L25.664,22.6V19.552a.652.652,0,0,1,1.3,0Zm4-3.109a.649.649,0,1,1,0,1.3H29.148v1.162h1.819a.649.649,0,1,1,0,1.3H28.5a.652.652,0,0,1-.652-.65V22.013h0V19.553A.651.651,0,0,1,28.5,18.9h2.47a.649.649,0,1,1,0,1.3H29.148v1.162h1.819Z" transform="translate(-5.827 -5.796)"/></svg>