<svg xmlns="http://www.w3.org/2000/svg" width="45" height="45" viewBox="0 0 45 45"><defs><style>.a{fill:#00c300;}.b{fill:#fff;}</style></defs><path class="a" d="M14.125,51h28.75A8.125,8.125,0,0,0,51,42.875V14.125A8.125,8.125,0,0,0,42.875,6H14.125A8.125,8.125,0,0,0,6,14.125v28.75A8.125,8.125,0,0,0,14.125,51Z" transform="translate(-6 -6)"/><path class="b" d="M45.767,26.084c0-7.887-7.821-14.3-17.434-14.3S10.9,18.2,10.9,26.084c0,7.071,6.2,12.993,14.581,14.113.568.124,1.341.379,1.536.869a3.663,3.663,0,0,1,.056,1.593s-.2,1.244-.249,1.509c-.076.445-.35,1.743,1.51.951s10.04-5.977,13.7-10.235h0A12.786,12.786,0,0,0,45.767,26.084ZM21.508,30.777H18.045a.92.92,0,0,1-.914-.925v-7a.914.914,0,1,1,1.828,0v6.079h2.55a.925.925,0,0,1,0,1.85Zm3.582-.925a.914.914,0,1,1-1.828,0v-7a.914.914,0,1,1,1.828,0Zm8.34,0a.919.919,0,0,1-.625.877.9.9,0,0,1-.29.048.914.914,0,0,1-.73-.37l-3.55-4.888v4.333a.915.915,0,1,1-1.83,0v-7a.923.923,0,0,1,.625-.877.891.891,0,0,1,.29-.047.916.916,0,0,1,.73.37L31.6,27.181V22.847a.915.915,0,1,1,1.829,0Zm5.605-4.427a.925.925,0,0,1,0,1.849h-2.55v1.654h2.55a.925.925,0,0,1,0,1.849H35.572a.921.921,0,0,1-.914-.925v-3.5h0v-3.5a.92.92,0,0,1,.914-.924h3.464a.924.924,0,0,1,0,1.848h-2.55v1.654h2.55Z" transform="translate(-5.827 -5.796)"/></svg>