<svg xmlns="http://www.w3.org/2000/svg" width="20" height="20" viewBox="0 0 20 20"><defs><style>.a{fill:#00c300;}.b{fill:#fff;}</style></defs><g transform="translate(-6 -6)"><path class="a" d="M9.611,26H22.389A3.611,3.611,0,0,0,26,22.389V9.611A3.611,3.611,0,0,0,22.389,6H9.611A3.611,3.611,0,0,0,6,9.611V22.389A3.611,3.611,0,0,0,9.611,26Z"/><path class="b" d="M25.326,17.624c0-3.222-3.236-5.844-7.214-5.844S10.9,14.4,10.9,17.624c0,2.889,2.566,5.309,6.033,5.766.235.051.555.155.636.355a1.478,1.478,0,0,1,.023.651s-.084.508-.1.616c-.031.182-.145.712.625.388a23.276,23.276,0,0,0,5.668-4.182h0A5.191,5.191,0,0,0,25.326,17.624ZM15.288,19.542H13.855a.378.378,0,0,1-.378-.378V16.3a.378.378,0,0,1,.756,0v2.484h1.055a.378.378,0,1,1,0,.756Zm1.482-.378a.378.378,0,0,1-.756,0V16.3a.378.378,0,0,1,.756,0Zm3.451,0a.38.38,0,0,1-.379.378.38.38,0,0,1-.3-.151l-1.469-2v1.77a.379.379,0,0,1-.757,0V16.3a.378.378,0,0,1,.259-.358.373.373,0,0,1,.12-.019.381.381,0,0,1,.3.151l1.469,2V16.3a.378.378,0,0,1,.757,0Zm2.319-1.809a.378.378,0,1,1,0,.755H21.485v.676h1.055a.378.378,0,1,1,0,.755H21.107a.379.379,0,0,1-.378-.378v-1.43h0V16.3h0a.378.378,0,0,1,.378-.377h1.433a.377.377,0,1,1,0,.755H21.485v.676h1.055Z" transform="translate(-2.109 -2.489)"/></g></svg>