<svg xmlns="http://www.w3.org/2000/svg" width="23.74" height="23.74" viewBox="0 0 23.74 23.74"><defs><style>.a{fill:#fff;}</style></defs><path class="a" d="M19.186,8a.6.6,0,0,0-.587.5l-.336,2.024a9.427,9.427,0,0,0-1.674.452L15.282,9.386a.592.592,0,0,0-.756-.137l-1.182.684a.592.592,0,0,0-.26.721l.719,1.92A9.613,9.613,0,0,0,12.574,13.8l-1.92-.719a.592.592,0,0,0-.721.26L9.25,14.526a.592.592,0,0,0,.137.756l1.586,1.308a9.427,9.427,0,0,0-.452,1.674L8.5,18.6a.6.6,0,0,0-.5.587v1.368a.6.6,0,0,0,.5.587l2.024.336a9.427,9.427,0,0,0,.452,1.674L9.386,24.458a.594.594,0,0,0-.137.756L9.933,26.4a.592.592,0,0,0,.721.26l1.92-.719A9.613,9.613,0,0,0,13.8,27.166l-.719,1.92a.593.593,0,0,0,.26.721l1.182.684a.6.6,0,0,0,.756-.137l1.305-1.586a9.425,9.425,0,0,0,1.676.452l.336,2.024a.6.6,0,0,0,.587.5h1.368a.6.6,0,0,0,.587-.5l.336-2.024a9.427,9.427,0,0,0,1.674-.452l1.308,1.586a.594.594,0,0,0,.756.137l1.182-.684a.592.592,0,0,0,.26-.721l-.719-1.92a9.613,9.613,0,0,0,1.229-1.229l1.92.719a.593.593,0,0,0,.721-.26l.684-1.182a.6.6,0,0,0-.137-.756l-1.586-1.305a9.425,9.425,0,0,0,.452-1.676l2.024-.336a.6.6,0,0,0,.5-.587V19.186a.6.6,0,0,0-.5-.587l-2.024-.336a9.427,9.427,0,0,0-.452-1.674l1.586-1.308a.594.594,0,0,0,.137-.756l-.684-1.182a.592.592,0,0,0-.721-.26l-1.92.719a9.613,9.613,0,0,0-1.229-1.229l.719-1.92a.593.593,0,0,0-.26-.721L25.213,9.25a.6.6,0,0,0-.756.137l-1.305,1.586a9.425,9.425,0,0,0-1.676-.452L21.14,8.5a.6.6,0,0,0-.587-.5Zm-.5,4.855v3.661a3.561,3.561,0,0,0-2.374,3.355,3.5,3.5,0,0,0,.06.651L13.2,22.35a7.105,7.105,0,0,1,5.485-9.5Zm2.374,0a7.1,7.1,0,0,1,5.483,9.5l-3.171-1.834a3.535,3.535,0,0,0-2.311-4Zm1.124,9.718,3.183,1.838a7.14,7.14,0,0,1-10.989,0l3.181-1.836a3.55,3.55,0,0,0,4.625,0Zm0,0" transform="translate(-8 -8)"/></svg>