<svg xmlns="http://www.w3.org/2000/svg" width="19.884" height="19.884" viewBox="0 0 19.884 19.884"><defs><style>.a{fill:#03a9f4;}</style></defs><path class="a" d="M18.465,3H7.419A4.419,4.419,0,0,0,3,7.419V18.465a4.419,4.419,0,0,0,4.419,4.419H18.465a4.419,4.419,0,0,0,4.419-4.419V7.419A4.419,4.419,0,0,0,18.465,3Zm.055,7.2v.379a7.718,7.718,0,0,1-7.765,7.765A7.952,7.952,0,0,1,6.59,17.109h.663a6.124,6.124,0,0,0,3.409-1.137,2.761,2.761,0,0,1-2.556-1.893,4.137,4.137,0,0,1,.474.1,2.08,2.08,0,0,0,.758-.1A2.736,2.736,0,0,1,7.16,11.428a4.724,4.724,0,0,0,1.231.379A3.1,3.1,0,0,1,7.16,9.439a2.174,2.174,0,0,1,.379-1.326,7.686,7.686,0,0,0,5.586,2.84c0-.189-.1-.379-.1-.663a2.748,2.748,0,0,1,2.746-2.746,2.58,2.58,0,0,1,1.988.852,4.6,4.6,0,0,0,1.7-.663,2.768,2.768,0,0,1-1.231,1.515,5.18,5.18,0,0,0,1.61-.474A6.394,6.394,0,0,1,18.521,10.2Z" transform="translate(-3 -3)"/></svg>