<svg xmlns="http://www.w3.org/2000/svg" width="36" height="36" viewBox="0 0 36 36"><defs><style>.a{fill:#03a9f4;}</style></defs><path class="a" d="M31,3H11a8,8,0,0,0-8,8V31a8,8,0,0,0,8,8H31a8,8,0,0,0,8-8V11A8,8,0,0,0,31,3Zm.1,13.028v.686A13.973,13.973,0,0,1,17.042,30.772,14.4,14.4,0,0,1,9.5,28.544h1.2a11.088,11.088,0,0,0,6.172-2.058,5,5,0,0,1-4.628-3.428,7.489,7.489,0,0,1,.858.172,3.766,3.766,0,0,0,1.372-.172,4.953,4.953,0,0,1-3.942-4.8,8.554,8.554,0,0,0,2.228.686,5.617,5.617,0,0,1-2.228-4.286,3.937,3.937,0,0,1,.686-2.4A13.915,13.915,0,0,0,21.332,17.4c0-.342-.172-.686-.172-1.2a4.976,4.976,0,0,1,4.972-4.972,4.67,4.67,0,0,1,3.6,1.542,8.322,8.322,0,0,0,3.086-1.2,5.011,5.011,0,0,1-2.228,2.742,9.378,9.378,0,0,0,2.914-.858A11.577,11.577,0,0,1,31.1,16.028Z" transform="translate(-3 -3)"/></svg>