<svg xmlns="http://www.w3.org/2000/svg" width="19.884" height="19.884" viewBox="0 0 19.884 19.884"><defs><style>.a{fill:#f44336;}.b{fill:#fff;}</style></defs><path class="a" d="M25.884,23.122a2.761,2.761,0,0,1-2.762,2.762H8.762A2.762,2.762,0,0,1,6,23.122V8.762A2.762,2.762,0,0,1,8.762,6H23.122a2.761,2.761,0,0,1,2.762,2.762Z" transform="translate(-6 -6)"/><path class="b" d="M25.084,24.38a1.623,1.623,0,0,0-1.172-1.116A49.96,49.96,0,0,0,18.18,23a49.856,49.856,0,0,0-5.732.264,1.623,1.623,0,0,0-1.172,1.116,16.822,16.822,0,0,0,0,6.077,1.623,1.623,0,0,0,1.172,1.116,49.959,49.959,0,0,0,5.732.263,49.861,49.861,0,0,0,5.732-.264,1.623,1.623,0,0,0,1.172-1.116,16.822,16.822,0,0,0,0-6.077Z" transform="translate(-8.238 -13.61)"/><path class="a" d="M14.841,31.628h-.92V25.914H13V25h2.762v.914h-.921Zm3.682,0h-.829L17.6,31a1.724,1.724,0,0,1-1.132.625.606.606,0,0,1-.6-.361,1.848,1.848,0,0,1-.105-.693V26.381h.921v4.284a.215.215,0,0,0,.239.182,1.1,1.1,0,0,0,.681-.466v-4h.921Zm6.628-2.4V27.741a1.333,1.333,0,0,0-.294-.94,1.4,1.4,0,0,0-1.073-.42,1.433,1.433,0,0,0-1.086.42,1.34,1.34,0,0,0-.308.958V30.3a1.266,1.266,0,0,0,.318.922,1.441,1.441,0,0,0,1.1.41,1.366,1.366,0,0,0,1.1-.434.948.948,0,0,0,.217-.434c0-.073.032-.269.032-.5h-.921v.365a.468.468,0,0,1-.92,0V29.233ZM23.31,27.426a.468.468,0,0,1,.92,0V28.6H23.31V27.426Zm-1.593-.5a.763.763,0,0,0-.746-.558c-.446,0-.631.229-.976.631V25h-.92v6.628H19.9L20,31.057a1.39,1.39,0,0,0,.975.571.763.763,0,0,0,.764-.54,2.523,2.523,0,0,0,.1-.773v-2.4A3.494,3.494,0,0,0,21.717,26.929Zm-.8,3.269c0,.48-.11.645-.359.645A.962.962,0,0,1,20,30.6V27.459a1.052,1.052,0,0,1,.562-.288c.249,0,.359.151.359.631Z" transform="translate(-9.134 -14.506)"/><path class="b" d="M15,9h1.014l.656,3.155h.064L17.356,9h1.025L17.209,13.36v2.268H16.2l0-2.146Zm3.391,2.807a1.139,1.139,0,0,1,.363-.887,1.392,1.392,0,0,1,.974-.332,1.25,1.25,0,0,1,.914.348,1.2,1.2,0,0,1,.356.9l0,2.477a1.316,1.316,0,0,1-.348.968,1.292,1.292,0,0,1-.961.351,1.27,1.27,0,0,1-.946-.362,1.329,1.329,0,0,1-.354-.972l0-2.487Zm.926,2.576a.433.433,0,0,0,.1.305.348.348,0,0,0,.273.107.381.381,0,0,0,.289-.111.412.412,0,0,0,.108-.3l0-2.613a.325.325,0,0,0-.111-.254.418.418,0,0,0-.287-.1.38.38,0,0,0-.268.1.333.333,0,0,0-.1.254Zm5.073-3.726v4.971H23.6l-.125-.608a1.961,1.961,0,0,1-.526.45,1.077,1.077,0,0,1-.529.157.558.558,0,0,1-.478-.218,1.073,1.073,0,0,1-.161-.648l0-4.1h.913l0,3.77a.42.42,0,0,0,.059.248.219.219,0,0,0,.185.077.485.485,0,0,0,.254-.1,1.226,1.226,0,0,0,.283-.26V10.657Z" transform="translate(-10.029 -7.343)"/></svg>