<svg xmlns="http://www.w3.org/2000/svg" width="36" height="36" viewBox="0 0 36 36"><defs><style>.a{fill:#f44336;}.b{fill:#fff;}</style></defs><g transform="translate(-6 -6)"><path class="a" d="M42,37a5,5,0,0,1-5,5H11a5,5,0,0,1-5-5V11a5,5,0,0,1,5-5H37a5,5,0,0,1,5,5Z"/><path class="b" d="M36.5,25.5a2.938,2.938,0,0,0-2.122-2.021C32.506,23,24,23,24,23s-8.506,0-10.377.478A2.938,2.938,0,0,0,11.5,25.5,28.382,28.382,0,0,0,11,31a28.4,28.4,0,0,0,.5,5.5,2.938,2.938,0,0,0,2.122,2.021C15.494,39,24,39,24,39s8.505,0,10.377-.478A2.938,2.938,0,0,0,36.5,36.5,28.382,28.382,0,0,0,37,31,28.4,28.4,0,0,0,36.5,25.5Z"/><path class="a" d="M16.333,37H14.667V26.655H13V25h5v1.655H16.333ZM23,37H21.5l-.167-1.132A3.122,3.122,0,0,1,19.283,37a1.1,1.1,0,0,1-1.092-.653A3.346,3.346,0,0,1,18,35.092V27.5h1.667v7.757a.389.389,0,0,0,.433.33,2,2,0,0,0,1.233-.843V27.5H23Zm12-4.337v-2.7a2.413,2.413,0,0,0-.533-1.7,2.538,2.538,0,0,0-1.942-.76,2.6,2.6,0,0,0-1.967.76A2.426,2.426,0,0,0,30,30v4.593a2.292,2.292,0,0,0,.575,1.669A2.61,2.61,0,0,0,32.567,37a2.473,2.473,0,0,0,1.983-.785,1.716,1.716,0,0,0,.392-.785c.008-.132.058-.487.058-.908H33.333v.661a.847.847,0,0,1-1.666,0v-2.52Zm-3.333-3.271a.847.847,0,0,1,1.666,0v2.123H31.666V29.392Zm-2.884-.9a1.382,1.382,0,0,0-1.35-1.01c-.808-.008-1.142.414-1.767,1.142V25H24V37h1.5l.167-1.034A2.516,2.516,0,0,0,27.433,37a1.381,1.381,0,0,0,1.383-.977,4.568,4.568,0,0,0,.183-1.4V30.28A6.325,6.325,0,0,0,28.783,28.492Zm-1.45,5.918c0,.869-.2,1.167-.65,1.167a1.742,1.742,0,0,1-1.017-.439V29.452a1.905,1.905,0,0,1,1.017-.521c.45,0,.65.273.65,1.142Z"/><path class="b" d="M15,9h1.835l1.187,5.712h.115L19.265,9h1.856L19,16.893V21H17.177l0-3.885Zm6.139,5.082a2.063,2.063,0,0,1,.657-1.606,2.52,2.52,0,0,1,1.764-.6,2.263,2.263,0,0,1,1.655.63,2.168,2.168,0,0,1,.645,1.622l0,4.485a2.383,2.383,0,0,1-.63,1.752,2.339,2.339,0,0,1-1.74.636,2.3,2.3,0,0,1-1.712-.656,2.406,2.406,0,0,1-.641-1.76l0-4.5Zm1.676,4.664a.785.785,0,0,0,.178.553.63.63,0,0,0,.5.193.69.69,0,0,0,.524-.2.745.745,0,0,0,.2-.547l0-4.731a.588.588,0,0,0-.2-.459.756.756,0,0,0-.519-.175.687.687,0,0,0-.486.176.6.6,0,0,0-.186.459ZM32,12v9H30.575l-.227-1.1a3.55,3.55,0,0,1-.953.815,1.951,1.951,0,0,1-.958.285,1.01,1.01,0,0,1-.866-.394,1.944,1.944,0,0,1-.291-1.174l0-7.432h1.653l0,6.825a.761.761,0,0,0,.106.449.4.4,0,0,0,.335.14.878.878,0,0,0,.46-.186,2.221,2.221,0,0,0,.512-.471l0-6.757Z"/></g></svg>